<svg id="visual" viewBox="0 0 1920 1080" width="1920" height="1080" xmlns="http://www.w3.org/2000/svg" xmlns:xlink="http://www.w3.org/1999/xlink" version="1.1"><g stroke-width="1" stroke-linejoin="bevel"><path d="M890.2 534L857.2 445L746.5 569Z" fill="#2e0834" stroke="#2e0834"></path><path d="M746.5 569L881.2 637L890.2 534Z" fill="#4a0361" stroke="#4a0361"></path><path d="M746.5 569L754.5 656L881.2 637Z" fill="#4f016a" stroke="#4f016a"></path><path d="M857.2 445L711.5 379L746.5 569Z" fill="#4f016a" stroke="#4f016a"></path><path d="M746.5 569L576.8 640L754.5 656Z" fill="#4a0361" stroke="#4a0361"></path><path d="M711.5 379L588.8 527L746.5 569Z" fill="#3c064a" stroke="#3c064a"></path><path d="M711.5 379L620.8 388L588.8 527Z" fill="#29082e" stroke="#29082e"></path><path d="M1005.8 682L1054.8 509L890.2 534Z" fill="#2e0834" stroke="#2e0834"></path><path d="M890.2 534L1044.8 410L857.2 445Z" fill="#29082e" stroke="#29082e"></path><path d="M857.2 445L738.5 275L711.5 379Z" fill="#370743" stroke="#370743"></path><path d="M895.2 255L738.5 275L857.2 445Z" fill="#240727" stroke="#240727"></path><path d="M711.5 379L738.5 275L620.8 388Z" fill="#410552" stroke="#410552"></path><path d="M1054.8 509L1044.8 410L890.2 534Z" fill="#4a0361" stroke="#4a0361"></path><path d="M920.2 834L1005.8 682L881.2 637Z" fill="#4a0361" stroke="#4a0361"></path><path d="M881.2 637L1005.8 682L890.2 534Z" fill="#410552" stroke="#410552"></path><path d="M588.8 527L576.8 640L746.5 569Z" fill="#4f016a" stroke="#4f016a"></path><path d="M754.5 656L920.2 834L881.2 637Z" fill="#450459" stroke="#450459"></path><path d="M1044.8 410L895.2 255L857.2 445Z" fill="#33073b" stroke="#33073b"></path><path d="M764.5 851L920.2 834L754.5 656Z" fill="#530072" stroke="#530072"></path><path d="M617.8 819L764.5 851L754.5 656Z" fill="#410552" stroke="#410552"></path><path d="M1044.8 410L1027.8 251L895.2 255Z" fill="#4f016a" stroke="#4f016a"></path><path d="M920.2 834L1000.8 802L1005.8 682Z" fill="#240727" stroke="#240727"></path><path d="M1185.5 562L1146.5 435L1054.8 509Z" fill="#33073b" stroke="#33073b"></path><path d="M1054.8 509L1146.5 435L1044.8 410Z" fill="#530072" stroke="#530072"></path><path d="M1044.8 410L1150.5 310L1027.8 251Z" fill="#530072" stroke="#530072"></path><path d="M1185.5 562L1054.8 509L1005.8 682Z" fill="#4a0361" stroke="#4a0361"></path><path d="M470.1 412L461.1 520L588.8 527Z" fill="#3c064a" stroke="#3c064a"></path><path d="M588.8 527L461.1 520L576.8 640Z" fill="#370743" stroke="#370743"></path><path d="M576.8 640L617.8 819L754.5 656Z" fill="#2e0834" stroke="#2e0834"></path><path d="M470.1 412L588.8 527L620.8 388Z" fill="#2e0834" stroke="#2e0834"></path><path d="M574.8 236L470.1 412L620.8 388Z" fill="#4a0361" stroke="#4a0361"></path><path d="M459.1 775L617.8 819L576.8 640Z" fill="#3c064a" stroke="#3c064a"></path><path d="M768.5 137L574.8 236L738.5 275Z" fill="#33073b" stroke="#33073b"></path><path d="M738.5 275L574.8 236L620.8 388Z" fill="#2e0834" stroke="#2e0834"></path><path d="M856.2 146L738.5 275L895.2 255Z" fill="#410552" stroke="#410552"></path><path d="M1058.8 144L856.2 146L895.2 255Z" fill="#450459" stroke="#450459"></path><path d="M856.2 146L768.5 137L738.5 275Z" fill="#3c064a" stroke="#3c064a"></path><path d="M1211.5 709L1185.5 562L1005.8 682Z" fill="#29082e" stroke="#29082e"></path><path d="M1146.5 435L1150.5 310L1044.8 410Z" fill="#4a0361" stroke="#4a0361"></path><path d="M1027.8 251L1058.8 144L895.2 255Z" fill="#29082e" stroke="#29082e"></path><path d="M1368.2 424L1150.5 310L1146.5 435Z" fill="#2e0834" stroke="#2e0834"></path><path d="M461.1 520L425.1 708L576.8 640Z" fill="#240727" stroke="#240727"></path><path d="M289.4 528L425.1 708L461.1 520Z" fill="#450459" stroke="#450459"></path><path d="M425.1 708L459.1 775L576.8 640Z" fill="#3c064a" stroke="#3c064a"></path><path d="M414.1 144L428.1 287L574.8 236Z" fill="#29082e" stroke="#29082e"></path><path d="M574.8 236L428.1 287L470.1 412Z" fill="#530072" stroke="#530072"></path><path d="M273.4 427L289.4 528L461.1 520Z" fill="#410552" stroke="#410552"></path><path d="M1150.5 310L1058.8 144L1027.8 251Z" fill="#450459" stroke="#450459"></path><path d="M856.2 146L863.2 0L768.5 137Z" fill="#4a0361" stroke="#4a0361"></path><path d="M1000.8 802L1211.5 709L1005.8 682Z" fill="#29082e" stroke="#29082e"></path><path d="M1185.5 562L1298.2 512L1146.5 435Z" fill="#2e0834" stroke="#2e0834"></path><path d="M566.8 925L775.5 964L764.5 851Z" fill="#530072" stroke="#530072"></path><path d="M764.5 851L859.2 971L920.2 834Z" fill="#410552" stroke="#410552"></path><path d="M920.2 834L1047.8 975L1000.8 802Z" fill="#29082e" stroke="#29082e"></path><path d="M1000.8 802L1219.5 793L1211.5 709Z" fill="#29082e" stroke="#29082e"></path><path d="M566.8 925L764.5 851L617.8 819Z" fill="#29082e" stroke="#29082e"></path><path d="M775.5 964L859.2 971L764.5 851Z" fill="#410552" stroke="#410552"></path><path d="M768.5 137L584.8 105L574.8 236Z" fill="#370743" stroke="#370743"></path><path d="M731.5 0L584.8 105L768.5 137Z" fill="#2e0834" stroke="#2e0834"></path><path d="M459.1 775L566.8 925L617.8 819Z" fill="#370743" stroke="#370743"></path><path d="M1320.2 656L1298.2 512L1185.5 562Z" fill="#29082e" stroke="#29082e"></path><path d="M1150.5 310L1149.5 93L1058.8 144Z" fill="#4f016a" stroke="#4f016a"></path><path d="M1183.5 929L1219.5 793L1000.8 802Z" fill="#240727" stroke="#240727"></path><path d="M1211.5 709L1320.2 656L1185.5 562Z" fill="#410552" stroke="#410552"></path><path d="M1012.8 0L863.2 0L856.2 146Z" fill="#530072" stroke="#530072"></path><path d="M863.2 0L731.5 0L768.5 137Z" fill="#33073b" stroke="#33073b"></path><path d="M859.2 971L1047.8 975L920.2 834Z" fill="#450459" stroke="#450459"></path><path d="M273.4 427L461.1 520L470.1 412Z" fill="#2e0834" stroke="#2e0834"></path><path d="M425.1 708L290.4 849L459.1 775Z" fill="#370743" stroke="#370743"></path><path d="M1335.2 822L1320.2 656L1211.5 709Z" fill="#4a0361" stroke="#4a0361"></path><path d="M414.1 144L319.4 302L428.1 287Z" fill="#370743" stroke="#370743"></path><path d="M428.1 287L319.4 302L470.1 412Z" fill="#370743" stroke="#370743"></path><path d="M289.4 528L302.4 701L425.1 708Z" fill="#2e0834" stroke="#2e0834"></path><path d="M459.1 775L435.1 940L566.8 925Z" fill="#4f016a" stroke="#4f016a"></path><path d="M418.1 0L414.1 144L584.8 105Z" fill="#4a0361" stroke="#4a0361"></path><path d="M584.8 105L414.1 144L574.8 236Z" fill="#240727" stroke="#240727"></path><path d="M1315.2 246L1149.5 93L1150.5 310Z" fill="#410552" stroke="#410552"></path><path d="M1058.8 144L1012.8 0L856.2 146Z" fill="#2e0834" stroke="#2e0834"></path><path d="M319.4 302L273.4 427L470.1 412Z" fill="#240727" stroke="#240727"></path><path d="M106.7 808L290.4 849L302.4 701Z" fill="#410552" stroke="#410552"></path><path d="M1149.5 93L1012.8 0L1058.8 144Z" fill="#410552" stroke="#410552"></path><path d="M731.5 0L601.8 0L584.8 105Z" fill="#2e0834" stroke="#2e0834"></path><path d="M1047.8 975L1183.5 929L1000.8 802Z" fill="#3c064a" stroke="#3c064a"></path><path d="M1219.5 793L1335.2 822L1211.5 709Z" fill="#450459" stroke="#450459"></path><path d="M1506.9 522L1368.2 424L1298.2 512Z" fill="#450459" stroke="#450459"></path><path d="M1298.2 512L1368.2 424L1146.5 435Z" fill="#2e0834" stroke="#2e0834"></path><path d="M290.4 849L435.1 940L459.1 775Z" fill="#4a0361" stroke="#4a0361"></path><path d="M593.8 1080L745.5 1080L775.5 964Z" fill="#3c064a" stroke="#3c064a"></path><path d="M775.5 964L745.5 1080L859.2 971Z" fill="#2e0834" stroke="#2e0834"></path><path d="M593.8 1080L775.5 964L566.8 925Z" fill="#29082e" stroke="#29082e"></path><path d="M859.2 971L896.2 1080L1047.8 975Z" fill="#370743" stroke="#370743"></path><path d="M1047.8 975L1208.5 1080L1183.5 929Z" fill="#33073b" stroke="#33073b"></path><path d="M1368.2 424L1315.2 246L1150.5 310Z" fill="#33073b" stroke="#33073b"></path><path d="M745.5 1080L896.2 1080L859.2 971Z" fill="#4f016a" stroke="#4f016a"></path><path d="M435.1 940L593.8 1080L566.8 925Z" fill="#240727" stroke="#240727"></path><path d="M1183.5 929L1335.2 822L1219.5 793Z" fill="#33073b" stroke="#33073b"></path><path d="M1320.2 656L1506.9 522L1298.2 512Z" fill="#29082e" stroke="#29082e"></path><path d="M896.2 1080L1042.8 1080L1047.8 975Z" fill="#2e0834" stroke="#2e0834"></path><path d="M1183.5 929L1337.2 981L1335.2 822Z" fill="#240727" stroke="#240727"></path><path d="M302.4 701L290.4 849L425.1 708Z" fill="#29082e" stroke="#29082e"></path><path d="M435.1 940L426.1 1080L593.8 1080Z" fill="#3c064a" stroke="#3c064a"></path><path d="M141.7 655L302.4 701L289.4 528Z" fill="#370743" stroke="#370743"></path><path d="M1451.9 174L1337.2 175L1315.2 246Z" fill="#4a0361" stroke="#4a0361"></path><path d="M1315.2 246L1337.2 175L1149.5 93Z" fill="#2e0834" stroke="#2e0834"></path><path d="M1149.5 93L1201.5 0L1012.8 0Z" fill="#29082e" stroke="#29082e"></path><path d="M148.7 425L168.7 515L273.4 427Z" fill="#4f016a" stroke="#4f016a"></path><path d="M273.4 427L168.7 515L289.4 528Z" fill="#2e0834" stroke="#2e0834"></path><path d="M148.7 425L273.4 427L319.4 302Z" fill="#3c064a" stroke="#3c064a"></path><path d="M601.8 0L418.1 0L584.8 105Z" fill="#450459" stroke="#450459"></path><path d="M414.1 144L288.4 124L319.4 302Z" fill="#29082e" stroke="#29082e"></path><path d="M1295.2 0L1201.5 0L1149.5 93Z" fill="#450459" stroke="#450459"></path><path d="M319.4 0L288.4 124L414.1 144Z" fill="#4f016a" stroke="#4f016a"></path><path d="M157.7 234L148.7 425L319.4 302Z" fill="#33073b" stroke="#33073b"></path><path d="M0 502L141.7 655L168.7 515Z" fill="#4f016a" stroke="#4f016a"></path><path d="M168.7 515L141.7 655L289.4 528Z" fill="#370743" stroke="#370743"></path><path d="M285.4 961L435.1 940L290.4 849Z" fill="#370743" stroke="#370743"></path><path d="M285.4 961L426.1 1080L435.1 940Z" fill="#530072" stroke="#530072"></path><path d="M107.7 920L285.4 961L290.4 849Z" fill="#530072" stroke="#530072"></path><path d="M1042.8 1080L1208.5 1080L1047.8 975Z" fill="#29082e" stroke="#29082e"></path><path d="M1516.9 963L1454.9 769L1335.2 822Z" fill="#4f016a" stroke="#4f016a"></path><path d="M1335.2 822L1454.9 769L1320.2 656Z" fill="#450459" stroke="#450459"></path><path d="M1368.2 424L1495.9 305L1315.2 246Z" fill="#370743" stroke="#370743"></path><path d="M1506.9 522L1488.9 365L1368.2 424Z" fill="#450459" stroke="#450459"></path><path d="M1337.2 175L1295.2 0L1149.5 93Z" fill="#240727" stroke="#240727"></path><path d="M1501.9 652L1506.9 522L1320.2 656Z" fill="#4a0361" stroke="#4a0361"></path><path d="M1208.5 1080L1337.2 981L1183.5 929Z" fill="#4a0361" stroke="#4a0361"></path><path d="M1454.9 769L1501.9 652L1320.2 656Z" fill="#33073b" stroke="#33073b"></path><path d="M1437.9 0L1295.2 0L1337.2 175Z" fill="#530072" stroke="#530072"></path><path d="M288.4 124L157.7 234L319.4 302Z" fill="#4a0361" stroke="#4a0361"></path><path d="M186.7 139L157.7 234L288.4 124Z" fill="#450459" stroke="#450459"></path><path d="M418.1 0L319.4 0L414.1 144Z" fill="#370743" stroke="#370743"></path><path d="M1621.6 420L1495.9 305L1488.9 365Z" fill="#370743" stroke="#370743"></path><path d="M1488.9 365L1495.9 305L1368.2 424Z" fill="#2e0834" stroke="#2e0834"></path><path d="M171.7 0L186.7 139L288.4 124Z" fill="#33073b" stroke="#33073b"></path><path d="M1495.9 305L1451.9 174L1315.2 246Z" fill="#530072" stroke="#530072"></path><path d="M124.7 1080L304.4 1080L285.4 961Z" fill="#410552" stroke="#410552"></path><path d="M285.4 961L304.4 1080L426.1 1080Z" fill="#29082e" stroke="#29082e"></path><path d="M0 673L106.7 808L141.7 655Z" fill="#370743" stroke="#370743"></path><path d="M141.7 655L106.7 808L302.4 701Z" fill="#2e0834" stroke="#2e0834"></path><path d="M0 502L168.7 515L148.7 425Z" fill="#2e0834" stroke="#2e0834"></path><path d="M1208.5 1080L1363.2 1080L1337.2 981Z" fill="#4f016a" stroke="#4f016a"></path><path d="M1337.2 981L1516.9 963L1335.2 822Z" fill="#4a0361" stroke="#4a0361"></path><path d="M1632.6 635L1506.9 522L1501.9 652Z" fill="#2e0834" stroke="#2e0834"></path><path d="M0 376L148.7 425L0 294Z" fill="#33073b" stroke="#33073b"></path><path d="M0 376L0 502L148.7 425Z" fill="#4a0361" stroke="#4a0361"></path><path d="M106.7 808L107.7 920L290.4 849Z" fill="#2e0834" stroke="#2e0834"></path><path d="M0 789L107.7 920L106.7 808Z" fill="#530072" stroke="#530072"></path><path d="M1585.6 168L1437.9 0L1451.9 174Z" fill="#410552" stroke="#410552"></path><path d="M1451.9 174L1437.9 0L1337.2 175Z" fill="#3c064a" stroke="#3c064a"></path><path d="M1506.9 522L1621.6 420L1488.9 365Z" fill="#410552" stroke="#410552"></path><path d="M1495.9 305L1586.6 242L1451.9 174Z" fill="#530072" stroke="#530072"></path><path d="M1662.6 556L1621.6 420L1506.9 522Z" fill="#240727" stroke="#240727"></path><path d="M1632.6 635L1501.9 652L1616.6 816Z" fill="#3c064a" stroke="#3c064a"></path><path d="M319.4 0L171.7 0L288.4 124Z" fill="#370743" stroke="#370743"></path><path d="M0 294L148.7 425L157.7 234Z" fill="#33073b" stroke="#33073b"></path><path d="M0 294L157.7 234L0 163Z" fill="#4a0361" stroke="#4a0361"></path><path d="M1621.6 420L1586.6 242L1495.9 305Z" fill="#4a0361" stroke="#4a0361"></path><path d="M0 502L0 673L141.7 655Z" fill="#29082e" stroke="#29082e"></path><path d="M1616.6 816L1501.9 652L1454.9 769Z" fill="#4a0361" stroke="#4a0361"></path><path d="M0 163L157.7 234L186.7 139Z" fill="#530072" stroke="#530072"></path><path d="M1363.2 1080L1516.9 963L1337.2 981Z" fill="#4f016a" stroke="#4f016a"></path><path d="M1736.3 281L1585.6 168L1586.6 242Z" fill="#370743" stroke="#370743"></path><path d="M1586.6 242L1585.6 168L1451.9 174Z" fill="#3c064a" stroke="#3c064a"></path><path d="M1769.3 580L1662.6 556L1632.6 635Z" fill="#33073b" stroke="#33073b"></path><path d="M1632.6 635L1662.6 556L1506.9 522Z" fill="#410552" stroke="#410552"></path><path d="M1621.6 420L1736.3 281L1586.6 242Z" fill="#450459" stroke="#450459"></path><path d="M0 673L0 789L106.7 808Z" fill="#3c064a" stroke="#3c064a"></path><path d="M1516.9 963L1616.6 816L1454.9 769Z" fill="#240727" stroke="#240727"></path><path d="M0 0L0 163L186.7 139Z" fill="#410552" stroke="#410552"></path><path d="M0 971L124.7 1080L107.7 920Z" fill="#240727" stroke="#240727"></path><path d="M107.7 920L124.7 1080L285.4 961Z" fill="#4a0361" stroke="#4a0361"></path><path d="M1363.2 1080L1512.9 1080L1516.9 963Z" fill="#240727" stroke="#240727"></path><path d="M1516.9 963L1648.6 927L1616.6 816Z" fill="#33073b" stroke="#33073b"></path><path d="M0 789L0 971L107.7 920Z" fill="#450459" stroke="#450459"></path><path d="M1645.6 1080L1648.6 927L1516.9 963Z" fill="#370743" stroke="#370743"></path><path d="M1616.6 816L1735.3 715L1632.6 635Z" fill="#4f016a" stroke="#4f016a"></path><path d="M1767.3 817L1735.3 715L1616.6 816Z" fill="#530072" stroke="#530072"></path><path d="M1762.3 384L1736.3 281L1621.6 420Z" fill="#33073b" stroke="#33073b"></path><path d="M1762.3 384L1621.6 420L1662.6 556Z" fill="#410552" stroke="#410552"></path><path d="M1585.6 168L1661.6 0L1437.9 0Z" fill="#450459" stroke="#450459"></path><path d="M171.7 0L0 0L186.7 139Z" fill="#410552" stroke="#410552"></path><path d="M1769.3 580L1762.3 384L1662.6 556Z" fill="#29082e" stroke="#29082e"></path><path d="M1735.3 715L1769.3 580L1632.6 635Z" fill="#370743" stroke="#370743"></path><path d="M0 971L0 1080L124.7 1080Z" fill="#450459" stroke="#450459"></path><path d="M1762.3 151L1661.6 0L1585.6 168Z" fill="#29082e" stroke="#29082e"></path><path d="M1648.6 927L1767.3 817L1616.6 816Z" fill="#240727" stroke="#240727"></path><path d="M1920 685L1920 533L1769.3 580Z" fill="#240727" stroke="#240727"></path><path d="M1812.3 926L1767.3 817L1648.6 927Z" fill="#240727" stroke="#240727"></path><path d="M1512.9 1080L1645.6 1080L1516.9 963Z" fill="#370743" stroke="#370743"></path><path d="M1920 300L1762.3 151L1736.3 281Z" fill="#240727" stroke="#240727"></path><path d="M1736.3 281L1762.3 151L1585.6 168Z" fill="#3c064a" stroke="#3c064a"></path><path d="M1920 300L1736.3 281L1762.3 384Z" fill="#29082e" stroke="#29082e"></path><path d="M1762.3 151L1752.3 0L1661.6 0Z" fill="#4f016a" stroke="#4f016a"></path><path d="M1920 685L1769.3 580L1735.3 715Z" fill="#29082e" stroke="#29082e"></path><path d="M1769.3 580L1920 533L1762.3 384Z" fill="#33073b" stroke="#33073b"></path><path d="M1779.3 1080L1812.3 926L1648.6 927Z" fill="#450459" stroke="#450459"></path><path d="M1920 685L1735.3 715L1920 770Z" fill="#3c064a" stroke="#3c064a"></path><path d="M1762.3 151L1920 0L1752.3 0Z" fill="#33073b" stroke="#33073b"></path><path d="M1920 533L1920 365L1762.3 384Z" fill="#29082e" stroke="#29082e"></path><path d="M1645.6 1080L1779.3 1080L1648.6 927Z" fill="#4a0361" stroke="#4a0361"></path><path d="M1920 770L1735.3 715L1767.3 817Z" fill="#370743" stroke="#370743"></path><path d="M1920 770L1767.3 817L1920 912Z" fill="#2e0834" stroke="#2e0834"></path><path d="M1920 365L1920 300L1762.3 384Z" fill="#410552" stroke="#410552"></path><path d="M1920 912L1767.3 817L1812.3 926Z" fill="#29082e" stroke="#29082e"></path><path d="M1920 300L1920 162L1762.3 151Z" fill="#370743" stroke="#370743"></path><path d="M1920 1080L1920 912L1812.3 926Z" fill="#4f016a" stroke="#4f016a"></path><path d="M1920 162L1920 0L1762.3 151Z" fill="#530072" stroke="#530072"></path><path d="M1779.3 1080L1920 1080L1812.3 926Z" fill="#4a0361" stroke="#4a0361"></path></g></svg>