<?xml version="1.0" standalone="no"?>
<!DOCTYPE svg PUBLIC "-//W3C//DTD SVG 20010904//EN"
 "http://www.w3.org/TR/2001/REC-SVG-20010904/DTD/svg10.dtd">
<svg version="1.0" xmlns="http://www.w3.org/2000/svg"
 width="1200.000000pt" height="1200.000000pt" viewBox="0 0 1200.000000 1200.000000"
 preserveAspectRatio="xMidYMid meet">
<metadata>
Created by potrace 1.14, written by Peter Selinger 2001-2017
</metadata>
<g transform="translate(0.000000,1200.000000) scale(0.100000,-0.100000)"
fill="#000000" stroke="none">
<path d="M5570 11609 c-824 -70 -1560 -288 -2258 -668 -1535 -838 -2599 -2342
-2867 -4056 -52 -330 -60 -454 -60 -880 0 -418 5 -506 51 -823 194 -1359 901
-2620 1967 -3505 828 -688 1826 -1123 2882 -1256 283 -35 465 -44 817 -38 344
5 490 17 778 62 1337 207 2571 909 3443 1958 670 805 1105 1785 1246 2807 41
296 46 387 46 790 0 403 -5 494 -46 790 -218 1577 -1123 3011 -2459 3895 -775
513 -1593 808 -2535 912 -165 18 -841 26 -1005 12z m770 -2764 c621 -84 1168
-384 1450 -795 118 -173 206 -385 249 -600 22 -111 41 -259 41 -322 l0 -38
-544 0 -544 0 -12 83 c-60 420 -357 674 -863 737 -63 8 -169 11 -305 7 -175
-4 -224 -9 -315 -31 -192 -45 -340 -120 -447 -226 -120 -120 -165 -241 -158
-432 4 -110 6 -120 41 -191 71 -143 193 -228 450 -312 166 -54 324 -94 967
-245 589 -138 725 -174 900 -237 563 -203 861 -517 972 -1026 20 -90 22 -131
23 -352 0 -240 -2 -255 -29 -369 -80 -339 -247 -618 -510 -848 -415 -364
-1011 -537 -1766 -514 -468 14 -850 90 -1160 232 -641 292 -995 794 -1029
1457 l-6 127 542 0 542 0 6 -37 c34 -206 112 -409 199 -515 127 -156 338 -264
611 -314 139 -25 504 -30 683 -10 528 61 799 274 828 651 16 205 -73 373 -251
476 -194 112 -406 175 -1085 324 -976 212 -1346 353 -1605 610 -226 223 -344
501 -375 885 -29 350 47 707 207 974 108 181 294 381 468 505 112 79 336 190
477 235 194 63 429 107 668 126 159 12 541 4 680 -15z"/>
</g>
</svg>
